<svg width="1748" height="90" viewBox="0 0 1748 90" fill="none" xmlns="http://www.w3.org/2000/svg">
<path d="M874 0C874 0 883.92 19.3649 896.012 28.4541C908.103 37.5432 933.863 45 933.863 45C933.863 45 908.103 52.4568 896.012 61.5459C883.92 70.6351 874 90 874 90C873.997 89.9951 864.078 70.634 851.988 61.5459C839.897 52.4568 814.137 45 814.137 45C814.137 45 839.897 37.5432 851.988 28.4541C864.078 19.366 873.997 0.00491946 874 0ZM874 19C873.999 19.0025 868.267 30.1885 861.282 35.4395C854.296 40.691 839.412 45 839.412 45C839.412 45 854.296 49.309 861.282 54.5605C868.266 59.8108 873.997 70.9942 874 71C874.002 70.9955 879.733 59.8111 886.718 54.5605C893.704 49.309 908.588 45 908.588 45C908.588 45 893.704 40.691 886.718 35.4395C879.732 30.1879 874 19 874 19Z" fill="#770910"/>
<path d="M770.237 24C770.237 24 774.866 33.0368 780.509 37.2784C786.151 41.52 798.173 45 798.173 45C798.173 45 786.151 48.48 780.509 52.7216C774.866 56.9632 770.237 66 770.237 66C770.237 66 765.607 56.9632 759.965 52.7216C754.322 48.48 742.301 45 742.301 45C742.301 45 754.322 41.52 759.965 37.2784C765.607 33.0368 770.237 24 770.237 24Z" fill="#770910"/>
<path d="M977.762 24C977.762 24 982.392 33.0368 988.034 37.2784C993.677 41.52 1005.7 45 1005.7 45C1005.7 45 993.677 48.48 988.034 52.7216C982.392 56.9632 977.762 66 977.762 66C977.762 66 973.133 56.9632 967.49 52.7216C961.848 48.48 949.826 45 949.826 45C949.826 45 961.848 41.52 967.49 37.2784C973.133 33.0368 977.762 24 977.762 24Z" fill="#770910"/>
<path d="M1039.62 32C1039.62 32 1042.6 37.8093 1046.22 40.5361C1049.85 43.2629 1748 45.5 1748 45.5C1748 45.5 1049.85 47.7371 1046.22 50.4639C1042.6 53.1907 1039.62 59 1039.62 59C1039.62 59 1036.64 53.1907 1033.02 50.4639C1029.39 47.7371 1021.66 45.5 1021.66 45.5C1021.66 45.5 1029.39 43.2629 1033.02 40.5361C1036.64 37.8093 1039.62 32 1039.62 32Z" fill="#770910"/>
<path d="M708.379 32C708.379 32 705.403 37.8093 701.776 40.5361C698.148 43.2629 2.81334e-05 45.5 2.81334e-05 45.5C2.81334e-05 45.5 698.148 47.7371 701.776 50.4639C705.403 53.1907 708.379 59 708.379 59C708.379 59 711.355 53.1907 714.982 50.4639C718.61 47.7371 726.338 45.5 726.338 45.5C726.338 45.5 718.61 43.2629 714.982 40.5361C711.355 37.8093 708.379 32 708.379 32Z" fill="#770910"/>
<path d="M874.001 24L878.084 37.5893L893.754 30.1508L883.859 41.9304L901.937 45L883.859 48.0696L893.754 59.8492L878.084 52.4107L874.001 66L869.917 52.4107L854.247 59.8492L864.142 48.0696L846.064 45L864.142 41.9304L854.247 30.1508L869.917 37.5893L874.001 24Z" fill="#770910"/>
</svg>
